<svg aria-hidden="true" style="position: absolute; width: 0; height: 0; overflow: hidden;" version="1.1" xmlns="http://www.w3.org/2000/svg" xmlns:xlink="http://www.w3.org/1999/xlink">
<defs>

<symbol id="icon-arrow-down" viewBox="0 0 32 32">
<path d="M26.56 11.934l-8.693 8.693c-1.027 1.027-2.707 1.027-3.733 0l-8.693-8.693"></path>
</symbol>

<symbol id="icon-book" viewBox="0 0 32 32">
<path d="M26.802 28.549h-17.569c-1.38 0-2.51-1.129-2.51-2.51v-20.078c0-1.38 1.129-2.51 2.51-2.51h17.569v25.098z"></path>
<path d="M26.802 28.549h-17.569c-1.38 0-2.51-1.129-2.51-2.51s1.129-2.51 2.51-2.51h17.569v5.020z"></path>
<path d="M11.743 16h10.039"></path>
<path d="M11.743 10.98h10.039"></path>
</symbol>

<symbol id="icon-card" viewBox="0 0 32 32">
<path d="M29.311 13.49h-25.098v-4.392c0-1.042 0.841-1.882 1.882-1.882h21.333c1.041 0 1.882 0.841 1.882 1.882v4.392z"></path>
<path d="M27.429 24.784h-21.333c-1.042 0-1.882-0.841-1.882-1.882v-9.412h25.098v9.412c0 1.041-0.841 1.882-1.882 1.882z"></path>
<path d="M29.311 12.235h-25.098v1.255h25.098v-1.255z"></path>
</symbol>

<symbol id="icon-right" viewBox="0 0 32 32">
<path d="M10.666 26.667l10.667-10.667-10.667-10.667"></path>
</symbol>

<symbol id="icon-code" viewBox="0 0 32 32">
<path d="M8.825 12.235c1.23 0.615 2.284 1.544 3.049 2.698 0.439 0.653 0.439 1.493 0 2.146-0.765 1.142-1.82 2.071-3.049 2.686"></path>
<path d="M16.493 19.765h5.020"></path>
<path d="M11.473 28.549h7.529c6.274 0 8.784-2.51 8.784-8.784v-7.529c0-6.274-2.51-8.784-8.784-8.784h-7.529c-6.274 0-8.784 2.51-8.784 8.784v7.529c0 6.274 2.51 8.784 8.784 8.784z"></path>
</symbol>

<symbol id="icon-command-square" viewBox="0 0 32 32">
<path d="M19.012 12.753h-6.024v6.024h6.024v-6.024z"></path>
<path d="M10.729 23.294c1.242 0 2.259-1.016 2.259-2.259v-2.259h-2.259c-1.242 0-2.259 1.017-2.259 2.259s1.016 2.259 2.259 2.259z"></path>
<path d="M10.729 12.753h2.259v-2.259c0-1.242-1.016-2.259-2.259-2.259s-2.259 1.016-2.259 2.259c0 1.242 1.016 2.259 2.259 2.259z"></path>
<path d="M19.012 12.753h2.259c1.242 0 2.259-1.017 2.259-2.259s-1.016-2.259-2.259-2.259c-1.242 0-2.259 1.016-2.259 2.259v2.259z"></path>
<path d="M21.271 23.294c1.242 0 2.259-1.016 2.259-2.259s-1.016-2.259-2.259-2.259h-2.259v2.259c0 1.242 1.016 2.259 2.259 2.259z"></path>
<path d="M12.235 28.314h7.529c6.275 0 8.784-2.51 8.784-8.784v-7.529c0-6.274-2.51-8.784-8.784-8.784h-7.529c-6.274 0-8.784 2.51-8.784 8.784v7.529c0 6.275 2.51 8.784 8.784 8.784z"></path>
</symbol>

<symbol id="icon-data" viewBox="0 0 32 32">
<path d="M9.725 10.745h-3.765c-1.38 0-2.51-1.129-2.51-2.51v-2.51c0-1.38 1.129-2.51 2.51-2.51h3.765c1.38 0 2.51 1.129 2.51 2.51v2.51c0 1.38-1.129 2.51-2.51 2.51z"></path>
<path d="M27.043 9.49h-4.518c-0.828 0-1.506-0.678-1.506-1.506v-2.008c0-0.828 0.678-1.506 1.506-1.506h4.518c0.828 0 1.506 0.678 1.506 1.506v2.008c0 0.828-0.677 1.506-1.506 1.506z"></path>
<path d="M27.043 18.902h-4.518c-0.828 0-1.506-0.678-1.506-1.506v-2.008c0-0.828 0.678-1.506 1.506-1.506h4.518c0.828 0 1.506 0.678 1.506 1.506v2.008c0 0.828-0.677 1.506-1.506 1.506z"></path>
<path d="M12.235 6.98h8.784"></path>
<path d="M16.627 6.98v16.314c0 1.381 1.129 2.51 2.51 2.51h1.882"></path>
<path d="M16.627 16.392h4.392"></path>
<path d="M27.043 28.314h-4.518c-0.828 0-1.506-0.678-1.506-1.506v-2.008c0-0.828 0.678-1.506 1.506-1.506h4.518c0.828 0 1.506 0.678 1.506 1.506v2.008c0 0.828-0.677 1.506-1.506 1.506z"></path>
</symbol>

<symbol id="icon-downloads" viewBox="0 0 32 32">
<path d="M21.92 11.867c4.8 0.413 6.76 2.88 6.76 8.28v0.173c0 5.96-2.387 8.347-8.347 8.347h-8.68c-5.96 0-8.347-2.387-8.347-8.347v-0.173c0-5.36 1.933-7.827 6.653-8.267"></path>
<path d="M16 2.667v17.173"></path>
<path d="M20.467 16.867l-4.467 4.467-4.467-4.467"></path>
</symbol>

<symbol id="icon-facebook" viewBox="0 0 32 32">
<path d="M32 16c0-8.837-7.163-16-16-16s-16 7.163-16 16c0 7.986 5.851 14.605 13.5 15.806v-11.181h-4.063v-4.625h4.063v-3.525c0-4.010 2.389-6.225 6.043-6.225 1.75 0 3.582 0.313 3.582 0.313v3.938h-2.017c-1.988 0-2.608 1.233-2.608 2.5v3h4.437l-0.709 4.625h-3.728v11.181c7.649-1.2 13.5-7.82 13.5-15.806z"></path>
<path d="M22.228 20.625l0.709-4.625h-4.437v-3c0-1.265 0.62-2.5 2.608-2.5h2.017v-3.938c0 0-1.831-0.313-3.582-0.313-3.655 0-6.043 2.215-6.043 6.225v3.525h-4.063v4.625h4.063v11.181c1.657 0.259 3.343 0.259 5 0v-11.181h3.728z"></path>
</symbol>

<symbol id="icon-figma" viewBox="0 0 32 32">
<path d="M10.666 32c2.944 0 5.333-2.389 5.333-5.333v-5.333h-5.333c-2.944 0-5.333 2.389-5.333 5.333s2.389 5.333 5.333 5.333z"></path>
<path d="M5.333 16c0-2.944 2.389-5.333 5.333-5.333h5.333v10.667h-5.333c-2.944 0-5.333-2.389-5.333-5.333z"></path>
<path d="M5.333 5.333c0-2.944 2.389-5.333 5.333-5.333h5.333v10.667h-5.333c-2.944 0-5.333-2.389-5.333-5.333z"></path>
<path d="M16 0h5.333c2.944 0 5.333 2.389 5.333 5.333s-2.389 5.333-5.333 5.333h-5.333v-10.667z"></path>
<path d="M26.667 16c0 2.944-2.389 5.333-5.333 5.333s-5.333-2.389-5.333-5.333c0-2.944 2.389-5.333 5.333-5.333s5.333 2.389 5.333 5.333z"></path>
</symbol>

<symbol id="icon-grid" viewBox="0 0 32 32">
<path d="M11.473 28.549h7.529c6.274 0 8.784-2.51 8.784-8.784v-7.529c0-6.274-2.51-8.784-8.784-8.784h-7.529c-6.274 0-8.784 2.51-8.784 8.784v7.529c0 6.274 2.51 8.784 8.784 8.784z"></path>
<path d="M15.238 3.451v25.098"></path>
<path d="M2.688 12.863h12.549"></path>
<path d="M15.238 19.137h12.549"></path>
</symbol>

<symbol id="icon-install" viewBox="0 0 32 32">
<path d="M12 29.333h8c6.667 0 9.333-2.667 9.333-9.333v-8c0-6.667-2.667-9.333-9.333-9.333h-8c-6.667 0-9.333 2.667-9.333 9.333v8c0 6.667 2.667 9.333 9.333 9.333z"></path>
<path d="M12 15.347l4 4 4-4"></path>
<path d="M16 19.347v-10.667"></path>
<path d="M8 22.013c5.187 1.733 10.813 1.733 16 0"></path>
</symbol>

<symbol id="icon-linkedin" viewBox="0 0 32 32">
<path d="M0 2.292c0-1.265 1.059-2.292 2.365-2.292h27.27c1.306 0 2.365 1.027 2.365 2.292v27.416c0 1.266-1.059 2.292-2.365 2.292h-27.27c-1.306 0-2.365-1.026-2.365-2.292v-27.416z"></path>
<path d="M9.724 26.78v-14.406h-4.788v14.406h4.788zM7.331 10.407c1.67 0 2.709-1.106 2.709-2.489-0.031-1.414-1.039-2.489-2.677-2.489-1.639 0-2.709 1.075-2.709 2.489 0 1.382 1.039 2.489 2.646 2.489h0.031l0 0zM12.374 26.78h4.788v-8.044c0-0.43 0.031-0.861 0.158-1.168 0.346-0.861 1.134-1.752 2.457-1.752 1.732 0 2.426 1.321 2.426 3.258v7.706h4.788v-8.26c0-4.425-2.362-6.484-5.512-6.484-2.583 0-3.717 1.444-4.348 2.427h0.032v-2.089h-4.788c0.063 1.351-0 14.407-0 14.407l0-0.001z"></path>
</symbol>

<symbol id="icon-mail" viewBox="0 0 32 32">
<path stroke-linejoin="miter" stroke-linecap="butt" stroke-miterlimit="4" stroke-width="2.672" d="M4.001 6.667l10.363 8.060c0.963 0.749 2.311 0.749 3.274 0l10.363-8.060M6.934 26.667h18.133c1.493 0 2.24 0 2.811-0.291 0.502-0.256 0.91-0.664 1.165-1.165 0.291-0.57 0.291-1.317 0.291-2.811v-12.8c0-1.493 0-2.24-0.291-2.811-0.256-0.502-0.664-0.91-1.165-1.165-0.57-0.291-1.317-0.291-2.811-0.291h-18.133c-1.493 0-2.24 0-2.811 0.291-0.502 0.256-0.91 0.664-1.165 1.165-0.291 0.57-0.291 1.317-0.291 2.811v12.8c0 1.493 0 2.24 0.291 2.811 0.256 0.502 0.664 0.91 1.165 1.165 0.57 0.291 1.317 0.291 2.811 0.291z"></path>
</symbol>

<symbol id="icon-menu" viewBox="0 0 32 32">
<path d="M25.547 28.549h-17.569c-2.083 0-3.765-1.682-3.765-3.765v-17.569c0-2.083 1.682-3.765 3.765-3.765h17.569c2.083 0 3.765 1.682 3.765 3.765v17.569c0 2.083-1.681 3.765-3.765 3.765z"></path>
<path d="M9.233 16h15.059"></path>
<path d="M9.233 22.274h15.059"></path>
<path d="M9.233 9.725h15.059"></path>
</symbol>

<symbol id="icon-message" viewBox="0 0 32 32">
<path d="M11.608 24.511h-0.627c-5.020 0-7.529-1.255-7.529-7.529v-6.275c0-5.020 2.51-7.529 7.529-7.529h10.039c5.020 0 7.529 2.51 7.529 7.529v6.275c0 5.020-2.51 7.529-7.529 7.529h-0.627c-0.389 0-0.766 0.188-1.004 0.502l-1.882 2.51c-0.828 1.104-2.184 1.104-3.012 0l-1.882-2.51c-0.201-0.276-0.653-0.502-1.004-0.502z"></path>
<path d="M10.98 11.624l-2.51 2.51 2.51 2.51"></path>
<path d="M21.020 11.624l2.51 2.51-2.51 2.51"></path>
<path d="M17.255 11.209l-2.51 5.848"></path>
</symbol>

<symbol id="icon-phone" viewBox="0 0 32 32">
<path d="M11.973 13.007c0.848 1.766 2.004 3.421 3.468 4.885s3.119 2.62 4.885 3.468c0.152 0.073 0.228 0.109 0.324 0.137 0.342 0.1 0.761 0.028 1.050-0.179 0.081-0.058 0.151-0.128 0.29-0.267 0.426-0.426 0.639-0.639 0.853-0.778 0.808-0.525 1.849-0.525 2.656 0 0.214 0.139 0.427 0.352 0.853 0.778l0.237 0.237c0.647 0.648 0.971 0.971 1.147 1.319 0.35 0.692 0.35 1.508 0 2.2-0.176 0.348-0.5 0.671-1.147 1.319l-0.192 0.192c-0.645 0.645-0.968 0.968-1.406 1.214-0.487 0.273-1.243 0.47-1.801 0.468-0.503-0.001-0.847-0.099-1.535-0.294-3.696-1.049-7.183-3.028-10.092-5.937s-4.888-6.396-5.937-10.092c-0.195-0.688-0.293-1.031-0.294-1.535-0.002-0.558 0.195-1.314 0.468-1.801 0.246-0.439 0.569-0.761 1.214-1.406l0.192-0.192c0.647-0.647 0.971-0.971 1.319-1.147 0.691-0.35 1.508-0.35 2.199-0 0.348 0.176 0.671 0.5 1.319 1.147l0.237 0.237c0.426 0.426 0.639 0.639 0.778 0.853 0.525 0.808 0.525 1.849 0 2.656-0.139 0.214-0.352 0.427-0.778 0.853-0.139 0.139-0.209 0.209-0.267 0.29-0.207 0.289-0.279 0.709-0.179 1.050 0.028 0.096 0.064 0.172 0.137 0.324z"></path>
</symbol>

<symbol id="icon-twitter" viewBox="0 0 32 32">
<path d="M31.158 7.849c-1.045 0.456-2.168 0.764-3.348 0.903 1.204-0.71 2.128-1.836 2.564-3.176-1.127 0.658-2.374 1.136-3.702 1.392-1.064-1.114-2.579-1.811-4.256-1.811-3.219 0-5.83 2.57-5.83 5.742 0 0.448 0.053 0.885 0.15 1.306-4.848-0.24-9.142-2.526-12.019-5.998-0.501 0.85-0.789 1.836-0.789 2.886 0 1.991 1.030 3.749 2.594 4.778-0.956-0.031-1.855-0.288-2.641-0.718v0.074c0 2.781 2.009 5.101 4.678 5.628-0.491 0.131-1.005 0.2-1.536 0.2-0.375 0-0.742-0.034-1.098-0.101 0.742 2.279 2.895 3.94 5.447 3.984-1.996 1.54-4.511 2.458-7.242 2.458-0.471 0-0.935-0.027-1.392-0.080 2.581 1.63 5.645 2.579 8.937 2.579 10.727 0 16.591-8.745 16.591-16.33 0-0.246-0.006-0.495-0.018-0.742 1.139-0.811 2.128-1.82 2.908-2.969l0.003-0.004z"></path>
</symbol>

<symbol id="icon-github" viewBox="0 0 32 32">
<path d="M22.656 5.086c-2.032-1.216-4.249-1.824-6.657-1.824-2.406 0-4.624 0.608-6.658 1.824-2.030 1.215-3.64 2.864-4.825 4.947-1.188 2.085-1.779 4.358-1.779 6.825 0 2.962 0.844 5.625 2.53 7.991 1.686 2.362 3.864 4.004 6.536 4.91 0.31 0.059 0.541 0.018 0.69-0.124 0.15-0.143 0.224-0.318 0.224-0.53l-0.008-0.959c-0.006-0.602-0.010-1.126-0.010-1.575l-0.396 0.070c-0.253 0.048-0.573 0.068-0.959 0.061-0.385-0.005-0.786-0.047-1.2-0.124-0.411-0.076-0.796-0.252-1.153-0.53s-0.61-0.641-0.76-1.089l-0.173-0.409c-0.114-0.271-0.296-0.572-0.543-0.901-0.248-0.333-0.498-0.557-0.751-0.675l-0.122-0.088c-0.080-0.059-0.153-0.129-0.224-0.212-0.068-0.083-0.119-0.165-0.153-0.248-0.035-0.085-0.007-0.152 0.085-0.204 0.092-0.055 0.259-0.079 0.5-0.079l0.347 0.053c0.229 0.047 0.514 0.188 0.854 0.424 0.34 0.237 0.619 0.544 0.837 0.922 0.265 0.483 0.585 0.852 0.959 1.106s0.752 0.381 1.132 0.381c0.377 0 0.707-0.032 0.983-0.089 0.275-0.059 0.536-0.148 0.775-0.265 0.106-0.792 0.388-1.4 0.847-1.825-0.655-0.072-1.245-0.178-1.768-0.32-0.524-0.141-1.065-0.371-1.622-0.691-0.561-0.318-1.023-0.712-1.392-1.186-0.367-0.468-0.67-1.091-0.905-1.854-0.235-0.77-0.354-1.652-0.354-2.657 0-1.427 0.453-2.643 1.363-3.647-0.426-1.074-0.388-2.277 0.122-3.612 0.332-0.106 0.826-0.027 1.483 0.238 0.656 0.265 1.135 0.493 1.44 0.68 0.306 0.191 0.551 0.35 0.735 0.479 1.068-0.301 2.172-0.452 3.312-0.452s2.244 0.154 3.316 0.46l0.656-0.426c0.449-0.283 0.979-0.54 1.59-0.779 0.612-0.235 1.079-0.3 1.402-0.194 0.517 1.335 0.564 2.537 0.138 3.612 0.908 1.002 1.363 2.218 1.363 3.646 0 1.002-0.118 1.891-0.354 2.664s-0.541 1.396-0.916 1.861c-0.373 0.466-0.839 0.858-1.398 1.178-0.558 0.318-1.102 0.548-1.622 0.689-0.524 0.142-1.112 0.248-1.771 0.318 0.599 0.53 0.898 1.367 0.898 2.514v3.736c0 0.212 0.071 0.388 0.216 0.53 0.143 0.141 0.37 0.183 0.682 0.124 2.673-0.911 4.85-2.547 6.536-4.915 1.686-2.362 2.53-5.028 2.53-7.989 0-2.466-0.594-4.74-1.779-6.824-1.186-2.083-2.795-3.732-4.825-4.947l-0.003-0.001z"></path>
</symbol>

<symbol id="icon-slack" viewBox="0 0 32 32">
<path d="M8.329 20.032c0 1.542-1.245 2.788-2.786 2.788s-2.786-1.246-2.786-2.788c0-1.542 1.245-2.788 2.786-2.788h2.786v2.788zM9.722 20.032c0-1.542 1.245-2.788 2.786-2.788s2.786 1.246 2.786 2.788v6.969c0 1.542-1.245 2.788-2.786 2.788s-2.786-1.246-2.786-2.788v-6.969z"></path>
<path d="M12.507 8.838c-1.54 0-2.786-1.246-2.786-2.788s1.245-2.788 2.786-2.788 2.786 1.246 2.786 2.788v2.788h-2.786zM12.507 10.253c1.54 0 2.786 1.246 2.786 2.788s-1.245 2.788-2.786 2.788h-6.985c-1.54 0-2.786-1.246-2.786-2.788s1.245-2.788 2.786-2.788h6.985z"></path>
<path d="M23.671 13.041c0-1.542 1.245-2.788 2.786-2.788s2.786 1.246 2.786 2.788-1.245 2.788-2.786 2.788h-2.786v-2.788zM22.278 13.041c0 1.542-1.245 2.788-2.786 2.788s-2.786-1.246-2.786-2.788v-6.991c0-1.542 1.245-2.788 2.786-2.788s2.786 1.246 2.786 2.788v6.991z"></path>
<path d="M19.492 24.214c1.541 0 2.786 1.246 2.786 2.788s-1.245 2.788-2.786 2.788c-1.541 0-2.786-1.246-2.786-2.788v-2.788h2.786zM19.492 22.82c-1.541 0-2.786-1.246-2.786-2.788s1.245-2.788 2.786-2.788h6.985c1.541 0 2.786 1.246 2.786 2.788s-1.245 2.788-2.786 2.788h-6.985z"></path>
</symbol>

<symbol id="icon-arrow" viewBox="0 0 32 32">
<path d="M19.294 9.882l6.588 6.118M25.882 16l-6.588 6.118M25.882 16h-19.765"></path>
</symbol>

<symbol id="icon-checked" viewBox="0 0 32 32">
<path d="M16 28.8c7.040 0 12.8-5.76 12.8-12.8s-5.76-12.8-12.8-12.8c-7.040 0-12.8 5.76-12.8 12.8s5.76 12.8 12.8 12.8z"></path>
<path d="M10.56 16l3.622 3.622 7.258-7.245"></path>
</symbol>

<symbol id="icon-union" viewBox="0 0 32 32">
<path d="M16 30.222c-7.855 0-14.222-6.367-14.222-14.222v-14.222c7.855 0 14.222 6.367 14.222 14.222v14.222zM16 30.222v-28.444h0.601c7.523 0 13.621 6.098 13.621 13.621v0.601c0 7.855-6.367 14.222-14.222 14.222z"></path>
</symbol>

</defs>
</svg>
